<?xml version="1.0" encoding="UTF-8" standalone="no"?>
<!DOCTYPE svg PUBLIC "-//W3C//DTD SVG 1.1//EN"
 "http://www.w3.org/Graphics/SVG/1.1/DTD/svg11.dtd">
<!-- Generated by graphviz version 2.40.1 (20161225.0304)
 -->
<!-- Title: G Pages: 1 -->
<svg width="720pt" height="457pt"
 viewBox="0.00 0.00 720.00 456.76" xmlns="http://www.w3.org/2000/svg" xmlns:xlink="http://www.w3.org/1999/xlink">
<g id="graph0" class="graph" transform="scale(.3097 .3097) rotate(0) translate(4 1470.9545)">
<title>G</title>
<polygon fill="#ffffff" stroke="transparent" points="-4,4 -4,-1470.9545 2321.0021,-1470.9545 2321.0021,4 -4,4"/>
<!-- 94794914795024 -->
<g id="node1" class="node">
<title>94794914795024</title>
<ellipse fill="none" stroke="#ff0000" cx="1965.1076" cy="-1422.4068" rx="108.789" ry="44.5955"/>
<text text-anchor="middle" x="1965.1076" y="-1409.9068" font-family="Times,serif" font-size="50.00" fill="#000000">Locale</text>
</g>
<!-- 94794914794976 -->
<g id="node2" class="node">
<title>94794914794976</title>
<ellipse fill="none" stroke="#ff0000" cx="1965.1076" cy="-1269.3114" rx="27" ry="44.5955"/>
<text text-anchor="middle" x="1965.1076" y="-1256.8114" font-family="Times,serif" font-size="50.00" fill="#000000">;</text>
</g>
<!-- 94794914795024&#45;&gt;94794914794976 -->
<g id="edge1" class="edge">
<title>94794914795024&#45;&gt;94794914794976</title>
<path fill="none" stroke="#0000ff" d="M1965.1076,-1377.7137C1965.1076,-1360.966 1965.1076,-1341.7423 1965.1076,-1324.1783"/>
<polygon fill="#0000ff" stroke="#0000ff" points="1968.6077,-1324.06 1965.1076,-1314.06 1961.6077,-1324.06 1968.6077,-1324.06"/>
<text text-anchor="middle" x="1973.6076" y="-1339.8591" font-family="Times,serif" font-size="25.00" fill="#000000">R</text>
</g>
<!-- 94794914794928 -->
<g id="node3" class="node">
<title>94794914794928</title>
<ellipse fill="none" stroke="#ff0000" cx="1879.1076" cy="-1116.2159" rx="27" ry="44.5955"/>
<text text-anchor="middle" x="1879.1076" y="-1103.7159" font-family="Times,serif" font-size="50.00" fill="#000000">;</text>
</g>
<!-- 94794914794976&#45;&gt;94794914794928 -->
<g id="edge3" class="edge">
<title>94794914794976&#45;&gt;94794914794928</title>
<path fill="none" stroke="#0000ff" d="M1946.6585,-1236.4685C1933.7353,-1213.4629 1916.3628,-1182.5367 1902.4718,-1157.8083"/>
<polygon fill="#0000ff" stroke="#0000ff" points="1905.4754,-1156.0088 1897.5263,-1149.0044 1899.3724,-1159.4372 1905.4754,-1156.0088"/>
<text text-anchor="middle" x="1938.6076" y="-1186.7636" font-family="Times,serif" font-size="25.00" fill="#000000">R</text>
</g>
<!-- 94794914793296 -->
<g id="node37" class="node">
<title>94794914793296</title>
<ellipse fill="none" stroke="#ff0000" cx="2052.1076" cy="-1116.2159" rx="125.7302" ry="44.5955"/>
<text text-anchor="middle" x="2052.1076" y="-1103.7159" font-family="Times,serif" font-size="50.00" fill="#000000">CrtQBit</text>
</g>
<!-- 94794914794976&#45;&gt;94794914793296 -->
<g id="edge2" class="edge">
<title>94794914794976&#45;&gt;94794914793296</title>
<path fill="none" stroke="#0000ff" d="M1983.7713,-1236.4685C1994.967,-1216.7672 2009.4636,-1191.2573 2022.2224,-1168.8055"/>
<polygon fill="#0000ff" stroke="#0000ff" points="2025.3019,-1170.4704 2027.1997,-1160.0469 2019.216,-1167.0119 2025.3019,-1170.4704"/>
<text text-anchor="middle" x="2025.1076" y="-1186.7636" font-family="Times,serif" font-size="25.00" fill="#000000">L</text>
</g>
<!-- 94794914794880 -->
<g id="node4" class="node">
<title>94794914794880</title>
<ellipse fill="none" stroke="#ff0000" cx="1708.1076" cy="-963.1205" rx="27" ry="44.5955"/>
<text text-anchor="middle" x="1708.1076" y="-950.6205" font-family="Times,serif" font-size="50.00" fill="#000000">;</text>
</g>
<!-- 94794914794928&#45;&gt;94794914794880 -->
<g id="edge5" class="edge">
<title>94794914794928&#45;&gt;94794914794880</title>
<path fill="none" stroke="#0000ff" d="M1854.1425,-1098.6576C1826.0016,-1078.3116 1779.5585,-1043.0318 1744.1076,-1007.6682 1741.3357,-1004.903 1738.5648,-1001.9346 1735.8602,-998.8909"/>
<polygon fill="#0000ff" stroke="#0000ff" points="1738.4737,-996.5619 1729.3109,-991.2427 1733.1567,-1001.1149 1738.4737,-996.5619"/>
<text text-anchor="middle" x="1802.6076" y="-1033.6682" font-family="Times,serif" font-size="25.00" fill="#000000">R</text>
</g>
<!-- 94794914793440 -->
<g id="node34" class="node">
<title>94794914793440</title>
<ellipse fill="none" stroke="#ff0000" cx="1879.1076" cy="-963.1205" rx="125.7302" ry="44.5955"/>
<text text-anchor="middle" x="1879.1076" y="-950.6205" font-family="Times,serif" font-size="50.00" fill="#000000">CrtQBit</text>
</g>
<!-- 94794914794928&#45;&gt;94794914793440 -->
<g id="edge4" class="edge">
<title>94794914794928&#45;&gt;94794914793440</title>
<path fill="none" stroke="#0000ff" d="M1879.1076,-1071.5228C1879.1076,-1054.7751 1879.1076,-1035.5514 1879.1076,-1017.9874"/>
<polygon fill="#0000ff" stroke="#0000ff" points="1882.6077,-1017.8691 1879.1076,-1007.8691 1875.6077,-1017.8691 1882.6077,-1017.8691"/>
<text text-anchor="middle" x="1887.1076" y="-1033.6682" font-family="Times,serif" font-size="25.00" fill="#000000">L</text>
</g>
<!-- 94794914794832 -->
<g id="node5" class="node">
<title>94794914794832</title>
<ellipse fill="none" stroke="#ff0000" cx="1058.1076" cy="-810.025" rx="27" ry="44.5955"/>
<text text-anchor="middle" x="1058.1076" y="-797.525" font-family="Times,serif" font-size="50.00" fill="#000000">;</text>
</g>
<!-- 94794914794880&#45;&gt;94794914794832 -->
<g id="edge7" class="edge">
<title>94794914794880&#45;&gt;94794914794832</title>
<path fill="none" stroke="#0000ff" d="M1681.0055,-956.737C1578.268,-932.5391 1212.6803,-846.4317 1094.9352,-818.699"/>
<polygon fill="#0000ff" stroke="#0000ff" points="1095.5016,-815.2367 1084.9655,-816.3509 1093.8967,-822.0503 1095.5016,-815.2367"/>
<text text-anchor="middle" x="1450.6076" y="-880.5727" font-family="Times,serif" font-size="25.00" fill="#000000">R</text>
</g>
<!-- 94794914793872 -->
<g id="node25" class="node">
<title>94794914793872</title>
<ellipse fill="none" stroke="#ff0000" cx="1721.1076" cy="-810.025" rx="72.25" ry="44.5955"/>
<text text-anchor="middle" x="1721.1076" y="-797.525" font-family="Times,serif" font-size="50.00" fill="#000000">&gt;&gt;=</text>
</g>
<!-- 94794914794880&#45;&gt;94794914793872 -->
<g id="edge6" class="edge">
<title>94794914794880&#45;&gt;94794914793872</title>
<path fill="none" stroke="#0000ff" d="M1711.8678,-918.8389C1713.297,-902.0075 1714.9426,-882.6286 1716.4453,-864.9311"/>
<polygon fill="#0000ff" stroke="#0000ff" points="1719.9522,-864.9977 1717.3109,-854.7374 1712.9773,-864.4054 1719.9522,-864.9977"/>
<text text-anchor="middle" x="1724.1076" y="-880.5727" font-family="Times,serif" font-size="25.00" fill="#000000">L</text>
</g>
<!-- 94794914794784 -->
<g id="node6" class="node">
<title>94794914794784</title>
<ellipse fill="none" stroke="#ff0000" cx="609.1076" cy="-656.9295" rx="27" ry="44.5955"/>
<text text-anchor="middle" x="609.1076" y="-644.4295" font-family="Times,serif" font-size="50.00" fill="#000000">;</text>
</g>
<!-- 94794914794832&#45;&gt;94794914794784 -->
<g id="edge9" class="edge">
<title>94794914794832&#45;&gt;94794914794784</title>
<path fill="none" stroke="#0000ff" d="M1031.3653,-800.9067C954.4699,-774.6876 732.6951,-699.0691 645.2104,-669.2395"/>
<polygon fill="#0000ff" stroke="#0000ff" points="646.3044,-665.9147 635.7099,-666.0001 644.0452,-672.5401 646.3044,-665.9147"/>
<text text-anchor="middle" x="882.6076" y="-727.4773" font-family="Times,serif" font-size="25.00" fill="#000000">R</text>
</g>
<!-- 94794914794208 -->
<g id="node18" class="node">
<title>94794914794208</title>
<ellipse fill="none" stroke="#ff0000" cx="1058.1076" cy="-656.9295" rx="72.25" ry="44.5955"/>
<text text-anchor="middle" x="1058.1076" y="-644.4295" font-family="Times,serif" font-size="50.00" fill="#000000">&gt;&gt;=</text>
</g>
<!-- 94794914794832&#45;&gt;94794914794208 -->
<g id="edge8" class="edge">
<title>94794914794832&#45;&gt;94794914794208</title>
<path fill="none" stroke="#0000ff" d="M1058.1076,-765.3319C1058.1076,-748.5842 1058.1076,-729.3605 1058.1076,-711.7965"/>
<polygon fill="#0000ff" stroke="#0000ff" points="1061.6077,-711.6781 1058.1076,-701.6782 1054.6077,-711.6782 1061.6077,-711.6781"/>
<text text-anchor="middle" x="1066.1076" y="-727.4773" font-family="Times,serif" font-size="25.00" fill="#000000">L</text>
</g>
<!-- 94794914794736 -->
<g id="node7" class="node">
<title>94794914794736</title>
<ellipse fill="none" stroke="#ff0000" cx="480.1076" cy="-503.8341" rx="27" ry="44.5955"/>
<text text-anchor="middle" x="480.1076" y="-491.3341" font-family="Times,serif" font-size="50.00" fill="#000000">;</text>
</g>
<!-- 94794914794784&#45;&gt;94794914794736 -->
<g id="edge11" class="edge">
<title>94794914794784&#45;&gt;94794914794736</title>
<path fill="none" stroke="#0000ff" d="M586.9318,-630.6115C565.3609,-605.0115 532.4826,-565.992 508.9013,-538.006"/>
<polygon fill="#0000ff" stroke="#0000ff" points="511.3298,-535.4564 502.2096,-530.0644 505.9768,-539.9669 511.3298,-535.4564"/>
<text text-anchor="middle" x="565.6076" y="-574.3818" font-family="Times,serif" font-size="25.00" fill="#000000">R</text>
</g>
<!-- 94794914794448 -->
<g id="node13" class="node">
<title>94794914794448</title>
<ellipse fill="none" stroke="#ff0000" cx="609.1076" cy="-503.8341" rx="72.25" ry="44.5955"/>
<text text-anchor="middle" x="609.1076" y="-491.3341" font-family="Times,serif" font-size="50.00" fill="#000000">&gt;&gt;=</text>
</g>
<!-- 94794914794784&#45;&gt;94794914794448 -->
<g id="edge10" class="edge">
<title>94794914794784&#45;&gt;94794914794448</title>
<path fill="none" stroke="#0000ff" d="M609.1076,-612.2364C609.1076,-595.4888 609.1076,-576.265 609.1076,-558.7011"/>
<polygon fill="#0000ff" stroke="#0000ff" points="612.6077,-558.5827 609.1076,-548.5827 605.6077,-558.5828 612.6077,-558.5827"/>
<text text-anchor="middle" x="617.1076" y="-574.3818" font-family="Times,serif" font-size="25.00" fill="#000000">L</text>
</g>
<!-- 94794914794688 -->
<g id="node8" class="node">
<title>94794914794688</title>
<ellipse fill="none" stroke="#ff0000" cx="354.1076" cy="-350.7386" rx="72.25" ry="44.5955"/>
<text text-anchor="middle" x="354.1076" y="-338.2386" font-family="Times,serif" font-size="50.00" fill="#000000">&lt;&lt;=</text>
</g>
<!-- 94794914794736&#45;&gt;94794914794688 -->
<g id="edge12" class="edge">
<title>94794914794736&#45;&gt;94794914794688</title>
<path fill="none" stroke="#0000ff" d="M458.1601,-477.1669C440.3327,-455.5059 414.7373,-424.4063 393.3937,-398.4729"/>
<polygon fill="#0000ff" stroke="#0000ff" points="395.9769,-396.1038 386.9197,-390.6067 390.572,-400.5521 395.9769,-396.1038"/>
<text text-anchor="middle" x="437.1076" y="-421.2864" font-family="Times,serif" font-size="25.00" fill="#000000">L</text>
</g>
<!-- 94794914794640 -->
<g id="node9" class="node">
<title>94794914794640</title>
<ellipse fill="none" stroke="#ff0000" cx="196.1076" cy="-197.6432" rx="39.6962" ry="44.5955"/>
<text text-anchor="middle" x="196.1076" y="-185.1432" font-family="Times,serif" font-size="50.00" fill="#000000">&amp;</text>
</g>
<!-- 94794914794688&#45;&gt;94794914794640 -->
<g id="edge14" class="edge">
<title>94794914794688&#45;&gt;94794914794640</title>
<path fill="none" stroke="#0000ff" d="M315.0515,-312.8948C290.2066,-288.8212 258.209,-257.8168 233.6604,-234.0303"/>
<polygon fill="#0000ff" stroke="#0000ff" points="235.9144,-231.3408 226.2972,-226.8956 231.0433,-236.3679 235.9144,-231.3408"/>
<text text-anchor="middle" x="298.6076" y="-268.1909" font-family="Times,serif" font-size="25.00" fill="#000000">R</text>
</g>
<!-- 94794914794544 -->
<g id="node11" class="node">
<title>94794914794544</title>
<ellipse fill="none" stroke="#ff0000" cx="354.1076" cy="-197.6432" rx="67.3507" ry="44.5955"/>
<text text-anchor="middle" x="354.1076" y="-185.1432" font-family="Times,serif" font-size="50.00" fill="#000000">&amp;&amp;</text>
</g>
<!-- 94794914794688&#45;&gt;94794914794544 -->
<g id="edge13" class="edge">
<title>94794914794688&#45;&gt;94794914794544</title>
<path fill="none" stroke="#0000ff" d="M354.1076,-306.0455C354.1076,-289.2978 354.1076,-270.0741 354.1076,-252.5102"/>
<polygon fill="#0000ff" stroke="#0000ff" points="357.6077,-252.3918 354.1076,-242.3918 350.6077,-252.3919 357.6077,-252.3918"/>
<text text-anchor="middle" x="362.1076" y="-268.1909" font-family="Times,serif" font-size="25.00" fill="#000000">L</text>
</g>
<!-- 94794914794592 -->
<g id="node10" class="node">
<title>94794914794592</title>
<ellipse fill="none" stroke="#ff0000" cx="130.1076" cy="-44.5477" rx="130.2154" ry="44.5955"/>
<text text-anchor="middle" x="130.1076" y="-32.0477" font-family="Times,serif" font-size="50.00" fill="#000000">measure</text>
</g>
<!-- 94794914794640&#45;&gt;94794914794592 -->
<g id="edge15" class="edge">
<title>94794914794640&#45;&gt;94794914794592</title>
<path fill="none" stroke="#0000ff" d="M178.7669,-157.4192C170.9553,-139.2991 161.6197,-117.6441 153.2243,-98.1698"/>
<polygon fill="#0000ff" stroke="#0000ff" points="156.3622,-96.6074 149.1893,-88.81 149.9341,-99.3786 156.3622,-96.6074"/>
<text text-anchor="middle" x="177.1076" y="-115.0955" font-family="Times,serif" font-size="25.00" fill="#000000">L</text>
</g>
<!-- 94794914794496 -->
<g id="node12" class="node">
<title>94794914794496</title>
<ellipse fill="none" stroke="#ff0000" cx="387.1076" cy="-44.5477" rx="108.789" ry="44.5955"/>
<text text-anchor="middle" x="387.1076" y="-32.0477" font-family="Times,serif" font-size="50.00" fill="#000000">malina</text>
</g>
<!-- 94794914794544&#45;&gt;94794914794496 -->
<g id="edge16" class="edge">
<title>94794914794544&#45;&gt;94794914794496</title>
<path fill="none" stroke="#0000ff" d="M363.6526,-153.3616C367.2966,-136.4564 371.4945,-116.9813 375.3227,-99.2211"/>
<polygon fill="#0000ff" stroke="#0000ff" points="378.8412,-99.5077 377.527,-88.9947 371.9984,-98.0327 378.8412,-99.5077"/>
<text text-anchor="middle" x="382.1076" y="-115.0955" font-family="Times,serif" font-size="25.00" fill="#000000">L</text>
</g>
<!-- 94794914794400 -->
<g id="node14" class="node">
<title>94794914794400</title>
<ellipse fill="none" stroke="#ff0000" cx="520.1076" cy="-350.7386" rx="39.6962" ry="44.5955"/>
<text text-anchor="middle" x="520.1076" y="-338.2386" font-family="Times,serif" font-size="50.00" fill="#000000">&amp;</text>
</g>
<!-- 94794914794448&#45;&gt;94794914794400 -->
<g id="edge18" class="edge">
<title>94794914794448&#45;&gt;94794914794400</title>
<path fill="none" stroke="#0000ff" d="M584.5524,-461.5948C572.8993,-441.5495 558.9455,-417.5465 547.0067,-397.0096"/>
<polygon fill="#0000ff" stroke="#0000ff" points="549.9045,-395.0303 541.8528,-388.1441 543.8528,-398.5484 549.9045,-395.0303"/>
<text text-anchor="middle" x="581.6076" y="-421.2864" font-family="Times,serif" font-size="25.00" fill="#000000">R</text>
</g>
<!-- 94794914794304 -->
<g id="node16" class="node">
<title>94794914794304</title>
<ellipse fill="none" stroke="#ff0000" cx="645.1076" cy="-350.7386" rx="67.3507" ry="44.5955"/>
<text text-anchor="middle" x="645.1076" y="-338.2386" font-family="Times,serif" font-size="50.00" fill="#000000">&amp;&amp;</text>
</g>
<!-- 94794914794448&#45;&gt;94794914794304 -->
<g id="edge17" class="edge">
<title>94794914794448&#45;&gt;94794914794304</title>
<path fill="none" stroke="#0000ff" d="M619.5203,-459.5525C623.5502,-442.4148 628.2012,-422.636 632.4234,-404.6802"/>
<polygon fill="#0000ff" stroke="#0000ff" points="635.8363,-405.4563 634.7184,-394.9207 629.0222,-403.854 635.8363,-405.4563"/>
<text text-anchor="middle" x="639.1076" y="-421.2864" font-family="Times,serif" font-size="25.00" fill="#000000">L</text>
</g>
<!-- 94794914794352 -->
<g id="node15" class="node">
<title>94794914794352</title>
<ellipse fill="none" stroke="#ff0000" cx="520.1076" cy="-197.6432" rx="80.7205" ry="44.5955"/>
<text text-anchor="middle" x="520.1076" y="-185.1432" font-family="Times,serif" font-size="50.00" fill="#000000">getH</text>
</g>
<!-- 94794914794400&#45;&gt;94794914794352 -->
<g id="edge19" class="edge">
<title>94794914794400&#45;&gt;94794914794352</title>
<path fill="none" stroke="#0000ff" d="M520.1076,-306.0455C520.1076,-289.2978 520.1076,-270.0741 520.1076,-252.5102"/>
<polygon fill="#0000ff" stroke="#0000ff" points="523.6077,-252.3918 520.1076,-242.3918 516.6077,-252.3919 523.6077,-252.3918"/>
<text text-anchor="middle" x="528.1076" y="-268.1909" font-family="Times,serif" font-size="25.00" fill="#000000">L</text>
</g>
<!-- 94794914794256 -->
<g id="node17" class="node">
<title>94794914794256</title>
<ellipse fill="none" stroke="#ff0000" cx="728.1076" cy="-197.6432" rx="108.789" ry="44.5955"/>
<text text-anchor="middle" x="728.1076" y="-185.1432" font-family="Times,serif" font-size="50.00" fill="#000000">malina</text>
</g>
<!-- 94794914794304&#45;&gt;94794914794256 -->
<g id="edge20" class="edge">
<title>94794914794304&#45;&gt;94794914794256</title>
<path fill="none" stroke="#0000ff" d="M668.0075,-308.4994C677.7833,-290.4675 689.2954,-269.2332 699.6141,-250.2002"/>
<polygon fill="#0000ff" stroke="#0000ff" points="702.7259,-251.8038 704.4152,-241.3445 696.5721,-248.4675 702.7259,-251.8038"/>
<text text-anchor="middle" x="702.1076" y="-268.1909" font-family="Times,serif" font-size="25.00" fill="#000000">L</text>
</g>
<!-- 94794914794160 -->
<g id="node19" class="node">
<title>94794914794160</title>
<ellipse fill="none" stroke="#ff0000" cx="1008.1076" cy="-503.8341" rx="39.6962" ry="44.5955"/>
<text text-anchor="middle" x="1008.1076" y="-491.3341" font-family="Times,serif" font-size="50.00" fill="#000000">&amp;</text>
</g>
<!-- 94794914794208&#45;&gt;94794914794160 -->
<g id="edge22" class="edge">
<title>94794914794208&#45;&gt;94794914794160</title>
<path fill="none" stroke="#0000ff" d="M1043.7797,-613.0585C1037.9065,-595.0756 1031.066,-574.1306 1024.9552,-555.4199"/>
<polygon fill="#0000ff" stroke="#0000ff" points="1028.2669,-554.2859 1021.8352,-545.8666 1021.6128,-556.4591 1028.2669,-554.2859"/>
<text text-anchor="middle" x="1046.6076" y="-574.3818" font-family="Times,serif" font-size="25.00" fill="#000000">R</text>
</g>
<!-- 94794914794064 -->
<g id="node21" class="node">
<title>94794914794064</title>
<ellipse fill="none" stroke="#ff0000" cx="1273.1076" cy="-503.8341" rx="67.3507" ry="44.5955"/>
<text text-anchor="middle" x="1273.1076" y="-491.3341" font-family="Times,serif" font-size="50.00" fill="#000000">&amp;&amp;</text>
</g>
<!-- 94794914794208&#45;&gt;94794914794064 -->
<g id="edge21" class="edge">
<title>94794914794208&#45;&gt;94794914794064</title>
<path fill="none" stroke="#0000ff" d="M1105.5565,-623.1426C1139.1004,-599.2569 1184.13,-567.1926 1219.0601,-542.3198"/>
<polygon fill="#0000ff" stroke="#0000ff" points="1221.1394,-545.1359 1227.2552,-536.4844 1217.0791,-539.4338 1221.1394,-545.1359"/>
<text text-anchor="middle" x="1193.1076" y="-574.3818" font-family="Times,serif" font-size="25.00" fill="#000000">L</text>
</g>
<!-- 94794914794112 -->
<g id="node20" class="node">
<title>94794914794112</title>
<ellipse fill="none" stroke="#ff0000" cx="959.1076" cy="-350.7386" rx="228.291" ry="44.5955"/>
<text text-anchor="middle" x="959.1076" y="-338.2386" font-family="Times,serif" font-size="50.00" fill="#000000">funcAlgDD (1)</text>
</g>
<!-- 94794914794160&#45;&gt;94794914794112 -->
<g id="edge23" class="edge">
<title>94794914794160&#45;&gt;94794914794112</title>
<path fill="none" stroke="#0000ff" d="M994.5885,-461.5948C988.9679,-444.0339 982.3751,-423.4355 976.4078,-404.7912"/>
<polygon fill="#0000ff" stroke="#0000ff" points="979.7345,-403.7031 973.3527,-395.2459 973.0677,-405.8369 979.7345,-403.7031"/>
<text text-anchor="middle" x="996.1076" y="-421.2864" font-family="Times,serif" font-size="25.00" fill="#000000">L</text>
</g>
<!-- 94794914794016 -->
<g id="node22" class="node">
<title>94794914794016</title>
<ellipse fill="none" stroke="#ff0000" cx="1273.1076" cy="-350.7386" rx="67.3507" ry="44.5955"/>
<text text-anchor="middle" x="1273.1076" y="-338.2386" font-family="Times,serif" font-size="50.00" fill="#000000">&amp;&amp;</text>
</g>
<!-- 94794914794064&#45;&gt;94794914794016 -->
<g id="edge25" class="edge">
<title>94794914794064&#45;&gt;94794914794016</title>
<path fill="none" stroke="#0000ff" d="M1273.1076,-459.141C1273.1076,-442.3933 1273.1076,-423.1696 1273.1076,-405.6056"/>
<polygon fill="#0000ff" stroke="#0000ff" points="1276.6077,-405.4872 1273.1076,-395.4873 1269.6077,-405.4873 1276.6077,-405.4872"/>
<text text-anchor="middle" x="1281.6076" y="-421.2864" font-family="Times,serif" font-size="25.00" fill="#000000">R</text>
</g>
<!-- 94794914793920 -->
<g id="node24" class="node">
<title>94794914793920</title>
<ellipse fill="none" stroke="#ff0000" cx="1467.1076" cy="-350.7386" rx="108.789" ry="44.5955"/>
<text text-anchor="middle" x="1467.1076" y="-338.2386" font-family="Times,serif" font-size="50.00" fill="#000000">malina</text>
</g>
<!-- 94794914794064&#45;&gt;94794914793920 -->
<g id="edge24" class="edge">
<title>94794914794064&#45;&gt;94794914793920</title>
<path fill="none" stroke="#0000ff" d="M1316.645,-469.4765C1343.8073,-448.0413 1379.1033,-420.1875 1408.6823,-396.8451"/>
<polygon fill="#0000ff" stroke="#0000ff" points="1411.1801,-399.3325 1416.862,-390.3901 1406.8437,-393.8375 1411.1801,-399.3325"/>
<text text-anchor="middle" x="1396.1076" y="-421.2864" font-family="Times,serif" font-size="25.00" fill="#000000">L</text>
</g>
<!-- 94794914793968 -->
<g id="node23" class="node">
<title>94794914793968</title>
<ellipse fill="none" stroke="#ff0000" cx="1273.1076" cy="-197.6432" rx="98.9899" ry="44.5955"/>
<text text-anchor="middle" x="1273.1076" y="-185.1432" font-family="Times,serif" font-size="50.00" fill="#000000">kalina</text>
</g>
<!-- 94794914794016&#45;&gt;94794914793968 -->
<g id="edge26" class="edge">
<title>94794914794016&#45;&gt;94794914793968</title>
<path fill="none" stroke="#0000ff" d="M1273.1076,-306.0455C1273.1076,-289.2978 1273.1076,-270.0741 1273.1076,-252.5102"/>
<polygon fill="#0000ff" stroke="#0000ff" points="1276.6077,-252.3918 1273.1076,-242.3918 1269.6077,-252.3919 1276.6077,-252.3918"/>
<text text-anchor="middle" x="1281.1076" y="-268.1909" font-family="Times,serif" font-size="25.00" fill="#000000">L</text>
</g>
<!-- 94794914793824 -->
<g id="node26" class="node">
<title>94794914793824</title>
<ellipse fill="none" stroke="#ff0000" cx="1721.1076" cy="-656.9295" rx="39.6962" ry="44.5955"/>
<text text-anchor="middle" x="1721.1076" y="-644.4295" font-family="Times,serif" font-size="50.00" fill="#000000">&amp;</text>
</g>
<!-- 94794914793872&#45;&gt;94794914793824 -->
<g id="edge28" class="edge">
<title>94794914793872&#45;&gt;94794914793824</title>
<path fill="none" stroke="#0000ff" d="M1721.1076,-765.3319C1721.1076,-748.5842 1721.1076,-729.3605 1721.1076,-711.7965"/>
<polygon fill="#0000ff" stroke="#0000ff" points="1724.6077,-711.6781 1721.1076,-701.6782 1717.6077,-711.6782 1724.6077,-711.6781"/>
<text text-anchor="middle" x="1729.6076" y="-727.4773" font-family="Times,serif" font-size="25.00" fill="#000000">R</text>
</g>
<!-- 94794914793632 -->
<g id="node30" class="node">
<title>94794914793632</title>
<ellipse fill="none" stroke="#ff0000" cx="1926.1076" cy="-656.9295" rx="67.3507" ry="44.5955"/>
<text text-anchor="middle" x="1926.1076" y="-644.4295" font-family="Times,serif" font-size="50.00" fill="#000000">&amp;&amp;</text>
</g>
<!-- 94794914793872&#45;&gt;94794914793632 -->
<g id="edge27" class="edge">
<title>94794914793872&#45;&gt;94794914793632</title>
<path fill="none" stroke="#0000ff" d="M1767.1136,-775.6674C1798.5643,-752.1798 1840.3347,-720.9854 1873.1691,-696.4645"/>
<polygon fill="#0000ff" stroke="#0000ff" points="1875.3945,-699.1708 1881.3125,-690.3829 1871.206,-693.5622 1875.3945,-699.1708"/>
<text text-anchor="middle" x="1850.1076" y="-727.4773" font-family="Times,serif" font-size="25.00" fill="#000000">L</text>
</g>
<!-- 94794914793776 -->
<g id="node27" class="node">
<title>94794914793776</title>
<ellipse fill="none" stroke="#ff0000" cx="1622.1076" cy="-503.8341" rx="39.6962" ry="44.5955"/>
<text text-anchor="middle" x="1622.1076" y="-491.3341" font-family="Times,serif" font-size="50.00" fill="#000000">&amp;</text>
</g>
<!-- 94794914793824&#45;&gt;94794914793776 -->
<g id="edge30" class="edge">
<title>94794914793824&#45;&gt;94794914793776</title>
<path fill="none" stroke="#0000ff" d="M1697.646,-620.6481C1683.7031,-599.0864 1665.907,-571.5662 1651.0906,-548.6538"/>
<polygon fill="#0000ff" stroke="#0000ff" points="1653.9414,-546.6168 1645.5722,-540.1201 1648.0633,-550.4179 1653.9414,-546.6168"/>
<text text-anchor="middle" x="1689.6076" y="-574.3818" font-family="Times,serif" font-size="25.00" fill="#000000">R</text>
</g>
<!-- 94794914793680 -->
<g id="node29" class="node">
<title>94794914793680</title>
<ellipse fill="none" stroke="#ff0000" cx="1760.1076" cy="-503.8341" rx="80.7205" ry="44.5955"/>
<text text-anchor="middle" x="1760.1076" y="-491.3341" font-family="Times,serif" font-size="50.00" fill="#000000">getH</text>
</g>
<!-- 94794914793824&#45;&gt;94794914793680 -->
<g id="edge29" class="edge">
<title>94794914793824&#45;&gt;94794914793680</title>
<path fill="none" stroke="#0000ff" d="M1732.0751,-613.8765C1736.5057,-596.484 1741.6684,-576.2179 1746.3471,-557.8514"/>
<polygon fill="#0000ff" stroke="#0000ff" points="1749.7388,-558.7152 1748.8158,-548.1606 1742.9554,-556.9871 1749.7388,-558.7152"/>
<text text-anchor="middle" x="1752.1076" y="-574.3818" font-family="Times,serif" font-size="25.00" fill="#000000">L</text>
</g>
<!-- 94794914793728 -->
<g id="node28" class="node">
<title>94794914793728</title>
<ellipse fill="none" stroke="#ff0000" cx="1675.1076" cy="-350.7386" rx="80.7205" ry="44.5955"/>
<text text-anchor="middle" x="1675.1076" y="-338.2386" font-family="Times,serif" font-size="50.00" fill="#000000">getH</text>
</g>
<!-- 94794914793776&#45;&gt;94794914793728 -->
<g id="edge31" class="edge">
<title>94794914793776&#45;&gt;94794914793728</title>
<path fill="none" stroke="#0000ff" d="M1636.5901,-462.0001C1642.7496,-444.2078 1650.0081,-423.241 1656.5538,-404.3331"/>
<polygon fill="#0000ff" stroke="#0000ff" points="1659.9382,-405.2557 1659.9022,-394.6609 1653.3233,-402.9657 1659.9382,-405.2557"/>
<text text-anchor="middle" x="1662.1076" y="-421.2864" font-family="Times,serif" font-size="25.00" fill="#000000">L</text>
</g>
<!-- 94794914793584 -->
<g id="node31" class="node">
<title>94794914793584</title>
<ellipse fill="none" stroke="#ff0000" cx="1926.1076" cy="-503.8341" rx="67.3507" ry="44.5955"/>
<text text-anchor="middle" x="1926.1076" y="-491.3341" font-family="Times,serif" font-size="50.00" fill="#000000">&amp;&amp;</text>
</g>
<!-- 94794914793632&#45;&gt;94794914793584 -->
<g id="edge33" class="edge">
<title>94794914793632&#45;&gt;94794914793584</title>
<path fill="none" stroke="#0000ff" d="M1926.1076,-612.2364C1926.1076,-595.4888 1926.1076,-576.265 1926.1076,-558.7011"/>
<polygon fill="#0000ff" stroke="#0000ff" points="1929.6077,-558.5827 1926.1076,-548.5827 1922.6077,-558.5828 1929.6077,-558.5827"/>
<text text-anchor="middle" x="1934.6076" y="-574.3818" font-family="Times,serif" font-size="25.00" fill="#000000">R</text>
</g>
<!-- 94794914793488 -->
<g id="node33" class="node">
<title>94794914793488</title>
<ellipse fill="none" stroke="#ff0000" cx="2120.1076" cy="-503.8341" rx="108.789" ry="44.5955"/>
<text text-anchor="middle" x="2120.1076" y="-491.3341" font-family="Times,serif" font-size="50.00" fill="#000000">malina</text>
</g>
<!-- 94794914793632&#45;&gt;94794914793488 -->
<g id="edge32" class="edge">
<title>94794914793632&#45;&gt;94794914793488</title>
<path fill="none" stroke="#0000ff" d="M1969.645,-622.5719C1996.8073,-601.1368 2032.1033,-573.2829 2061.6823,-549.9406"/>
<polygon fill="#0000ff" stroke="#0000ff" points="2064.1801,-552.428 2069.862,-543.4855 2059.8437,-546.9329 2064.1801,-552.428"/>
<text text-anchor="middle" x="2049.1076" y="-574.3818" font-family="Times,serif" font-size="25.00" fill="#000000">L</text>
</g>
<!-- 94794914793536 -->
<g id="node32" class="node">
<title>94794914793536</title>
<ellipse fill="none" stroke="#ff0000" cx="1926.1076" cy="-350.7386" rx="98.9899" ry="44.5955"/>
<text text-anchor="middle" x="1926.1076" y="-338.2386" font-family="Times,serif" font-size="50.00" fill="#000000">kalina</text>
</g>
<!-- 94794914793584&#45;&gt;94794914793536 -->
<g id="edge34" class="edge">
<title>94794914793584&#45;&gt;94794914793536</title>
<path fill="none" stroke="#0000ff" d="M1926.1076,-459.141C1926.1076,-442.3933 1926.1076,-423.1696 1926.1076,-405.6056"/>
<polygon fill="#0000ff" stroke="#0000ff" points="1929.6077,-405.4872 1926.1076,-395.4873 1922.6077,-405.4873 1929.6077,-405.4872"/>
<text text-anchor="middle" x="1934.1076" y="-421.2864" font-family="Times,serif" font-size="25.00" fill="#000000">L</text>
</g>
<!-- 94794914793392 -->
<g id="node35" class="node">
<title>94794914793392</title>
<ellipse fill="none" stroke="#ff0000" cx="1853.1076" cy="-810.025" rx="28.9828" ry="44.5955"/>
<text text-anchor="middle" x="1853.1076" y="-797.525" font-family="Times,serif" font-size="50.00" fill="#000000">1</text>
</g>
<!-- 94794914793440&#45;&gt;94794914793392 -->
<g id="edge36" class="edge">
<title>94794914793440&#45;&gt;94794914793392</title>
<path fill="none" stroke="#0000ff" d="M1871.5175,-918.4274C1868.5844,-901.1567 1865.2042,-881.2529 1862.147,-863.2515"/>
<polygon fill="#0000ff" stroke="#0000ff" points="1865.5636,-862.4648 1860.4386,-853.192 1858.6624,-863.6369 1865.5636,-862.4648"/>
<text text-anchor="middle" x="1877.6076" y="-880.5727" font-family="Times,serif" font-size="25.00" fill="#000000">R</text>
</g>
<!-- 94794914793344 -->
<g id="node36" class="node">
<title>94794914793344</title>
<ellipse fill="none" stroke="#ff0000" cx="1999.1076" cy="-810.025" rx="98.9899" ry="44.5955"/>
<text text-anchor="middle" x="1999.1076" y="-797.525" font-family="Times,serif" font-size="50.00" fill="#000000">kalina</text>
</g>
<!-- 94794914793440&#45;&gt;94794914793344 -->
<g id="edge35" class="edge">
<title>94794914793440&#45;&gt;94794914793344</title>
<path fill="none" stroke="#0000ff" d="M1912.8537,-920.0674C1927.4114,-901.4948 1944.5375,-879.6453 1959.6762,-860.3314"/>
<polygon fill="#0000ff" stroke="#0000ff" points="1962.6149,-862.2558 1966.0293,-852.2262 1957.1056,-857.9375 1962.6149,-862.2558"/>
<text text-anchor="middle" x="1958.1076" y="-880.5727" font-family="Times,serif" font-size="25.00" fill="#000000">L</text>
</g>
<!-- 94794914793248 -->
<g id="node38" class="node">
<title>94794914793248</title>
<ellipse fill="none" stroke="#ff0000" cx="2052.1076" cy="-963.1205" rx="28.9828" ry="44.5955"/>
<text text-anchor="middle" x="2052.1076" y="-950.6205" font-family="Times,serif" font-size="50.00" fill="#000000">0</text>
</g>
<!-- 94794914793296&#45;&gt;94794914793248 -->
<g id="edge38" class="edge">
<title>94794914793296&#45;&gt;94794914793248</title>
<path fill="none" stroke="#0000ff" d="M2052.1076,-1071.5228C2052.1076,-1054.7751 2052.1076,-1035.5514 2052.1076,-1017.9874"/>
<polygon fill="#0000ff" stroke="#0000ff" points="2055.6077,-1017.8691 2052.1076,-1007.8691 2048.6077,-1017.8691 2055.6077,-1017.8691"/>
<text text-anchor="middle" x="2060.6076" y="-1033.6682" font-family="Times,serif" font-size="25.00" fill="#000000">R</text>
</g>
<!-- 94794914793200 -->
<g id="node39" class="node">
<title>94794914793200</title>
<ellipse fill="none" stroke="#ff0000" cx="2208.1076" cy="-963.1205" rx="108.789" ry="44.5955"/>
<text text-anchor="middle" x="2208.1076" y="-950.6205" font-family="Times,serif" font-size="50.00" fill="#000000">malina</text>
</g>
<!-- 94794914793296&#45;&gt;94794914793200 -->
<g id="edge37" class="edge">
<title>94794914793296&#45;&gt;94794914793200</title>
<path fill="none" stroke="#0000ff" d="M2095.1483,-1073.9766C2114.8271,-1054.6642 2138.2491,-1031.6783 2158.6495,-1011.6577"/>
<polygon fill="#0000ff" stroke="#0000ff" points="2161.3305,-1013.9305 2166.0163,-1004.4281 2156.4275,-1008.9345 2161.3305,-1013.9305"/>
<text text-anchor="middle" x="2152.1076" y="-1033.6682" font-family="Times,serif" font-size="25.00" fill="#000000">L</text>
</g>
</g>
</svg>
